<?xml version="1.0" encoding="UTF-8"?>
<svg xmlns="http://www.w3.org/2000/svg" viewBox="0 0 2100 2100">
  <defs>
    <style>
      .uuid-be78aa32-4f91-4c12-bf2e-40c6df6ed704 {
        opacity: .72;
      }

      .uuid-be78aa32-4f91-4c12-bf2e-40c6df6ed704, .uuid-fb172299-9736-4637-958a-9fb88de3ee0e, .uuid-b4acb1fb-6b25-4686-8fa8-28a5437fdeae, .uuid-87f99cc4-409d-46f2-81b6-69245bc3211b, .uuid-07eb06a4-5dcc-4bc3-96ec-055836c5b067, .uuid-e42a22b7-3c4d-46d1-8a4c-c0730642b4ae, .uuid-8461e881-1211-4f5f-a149-013ff5450364, .uuid-625cabe9-95f4-4ae8-86de-667d71c59c76, .uuid-fcc2223e-df87-4a00-9b59-6675305d6e82, .uuid-5c65fd41-c9da-4a5c-9cde-2edc35a1bfa3 {
        stroke-width: 0px;
      }

      .uuid-be78aa32-4f91-4c12-bf2e-40c6df6ed704, .uuid-07eb06a4-5dcc-4bc3-96ec-055836c5b067 {
        fill: #fff;
      }

      .uuid-fb172299-9736-4637-958a-9fb88de3ee0e {
        fill: #467085;
      }

      .uuid-b4acb1fb-6b25-4686-8fa8-28a5437fdeae {
        fill: #e6dcb8;
      }

      .uuid-141da904-0812-489e-872c-2dc8b63bed59 {
        isolation: isolate;
      }

      .uuid-87f99cc4-409d-46f2-81b6-69245bc3211b {
        fill: #c7e1f1;
      }

      .uuid-e42a22b7-3c4d-46d1-8a4c-c0730642b4ae {
        fill: #a3d4f7;
      }

      .uuid-8461e881-1211-4f5f-a149-013ff5450364 {
        fill: #c8dae2;
      }

      .uuid-625cabe9-95f4-4ae8-86de-667d71c59c76 {
        fill: #ff9500;
      }

      .uuid-70ee4877-d497-442c-8183-59f8ecc00d1d {
        mix-blend-mode: overlay;
        opacity: .69;
      }

      .uuid-fcc2223e-df87-4a00-9b59-6675305d6e82 {
        fill: #4c7db3;
      }

      .uuid-5c65fd41-c9da-4a5c-9cde-2edc35a1bfa3 {
        fill: #00afd2;
      }

      .uuid-f636acef-7f1a-4143-8529-3d39bc350ea1 {
        opacity: .25;
      }

      .uuid-76607303-bc07-40ce-a247-058995bb3942 {
        mix-blend-mode: multiply;
      }
    </style>
  </defs>
  <g class="uuid-141da904-0812-489e-872c-2dc8b63bed59">
    <g id="uuid-b738ddc6-5396-451f-87e3-9d3d8a92db5f" data-name="Layer 1">
      <rect class="uuid-07eb06a4-5dcc-4bc3-96ec-055836c5b067" width="2100" height="2100"/>
      <g>
        <path class="uuid-625cabe9-95f4-4ae8-86de-667d71c59c76" d="m494.96,1242.05c-8.15.84-16.62-.1-24.84-3.09-95.98-34.82-200.52-49.77-302.34-43.23-30.99,1.99-57.74-21.59-59.73-52.65-2.01-31.06,21.39-57.44,52.48-59.86,117.14-7.51,237.4,9.68,347.8,49.73,29.21,10.59,44.33,42.92,33.77,72.19-7.58,21.02-26.33,34.76-47.13,36.9Z"/>
        <path class="uuid-625cabe9-95f4-4ae8-86de-667d71c59c76" d="m613.19,1027.8c-16.9,0-33.73-6.8-46.08-20.21-101.33-110.14-216.52-207.04-342.38-288.03-29.07-18.7-37.47-57.42-18.77-86.48,18.72-29.09,57.46-37.43,86.48-18.77,134.83,86.75,258.23,190.56,366.79,308.55,23.4,25.43,21.74,65.02-3.68,88.42-12.03,11.06-27.22,16.53-42.36,16.53Z"/>
        <path class="uuid-625cabe9-95f4-4ae8-86de-667d71c59c76" d="m788.1,920.75c-26.1,0-50.45-16.45-59.28-42.54l-161.46-477.21c-11.07-32.74,6.48-68.26,39.22-79.34,32.76-11.08,68.26,6.49,79.34,39.22l161.46,477.23c11.07,32.74-6.5,68.26-39.24,79.33-6.63,2.25-13.41,3.32-20.04,3.32Z"/>
        <path class="uuid-625cabe9-95f4-4ae8-86de-667d71c59c76" d="m1055.78,878.66c-33.67,0-61.48-33.2-62.62-73.63-.05-2.01-.05-3.99.03-5.97l-.02-5.03c-.75-200.38,5.19-376.32,16.69-495.42,3.96-41.07,34.99-70.6,69.34-65.79,34.35,4.75,58.97,41.9,54.99,82.98-10.95,113.36-16.57,282.97-15.85,477.57,0,2.17-.03,4.28-.1,6.34.02.09.02.19.02.28h-.02c-2.64,75.1-55.14,78.51-61.29,78.66-.38.01-.77.01-1.17.01Z"/>
        <path class="uuid-625cabe9-95f4-4ae8-86de-667d71c59c76" d="m1335.14,890.04c-4.56,0-9.18-.51-13.83-1.55-33.72-7.6-54.88-41.1-47.27-74.82.38-1.69,59.18-197.31,237.61-440.93,20.43-27.87,59.56-33.93,87.46-13.51,27.89,20.42,33.93,59.59,13.5,87.47-156.96,214.28-214.61,389.38-217.32,397.84-7.72,27.24-32.65,45.49-60.15,45.49Z"/>
        <path class="uuid-625cabe9-95f4-4ae8-86de-667d71c59c76" d="m1504.48,1055.63c-16.03,0-32.04-6.11-44.26-18.34-24.43-24.44-24.43-64.06.02-88.5l354.11-353.96c24.46-24.42,64.08-24.41,88.51.03,24.43,24.44,24.43,64.06-.02,88.5l-354.11,353.96c-12.22,12.21-28.23,18.32-44.25,18.32Z"/>
        <path class="uuid-625cabe9-95f4-4ae8-86de-667d71c59c76" d="m1625.21,1231.13c-5.82,0-11.47-1.6-17.45-5.32-9.78-6.08-18.02-18.39-21.45-32.07-6.88-27.5,4.23-57.25,24.8-66.45,4.49-2,9.03-2.9,13.53-2.7,3.52-1.77,8.17-4.23,12.46-6.51,42.25-22.39,130.16-68.96,260.53-78.29,22.25-1.38,40.17,20.68,41.33,49.63,1.16,28.96-15.46,53.7-37.12,55.24-117.56,8.42-197.42,50.72-235.8,71.05-16.77,8.9-29.11,15.43-40.83,15.43Z"/>
        <path class="uuid-625cabe9-95f4-4ae8-86de-667d71c59c76" d="m1677.93,1323.61c34.83,6.77-20.23-181.71-139.43-324.75-147.03-176.43-386.69-272.18-637.27-220.16-250.57,52.02-449.96,294.17-451.43,550.08,0,0,163.68,49.16,254.15,73.66,176.87,47.9,198.92-125.58,271.33-125.58s109.68,48.73,248.45,74.32c138.77,25.58,398.04-38.5,454.21-27.59Z"/>
        <g class="uuid-76607303-bc07-40ce-a247-058995bb3942">
          <path class="uuid-b4acb1fb-6b25-4686-8fa8-28a5437fdeae" d="m831.99,1346.2c-37.01,0-69.93,23.92-128.06,56.26,24.51,15.6,58.45,22.51,104.52,5.02,37.44-14.21,67.51-28.18,92.81-40.8-24.31-11.58-43.95-20.48-69.28-20.48Z"/>
        </g>
        <g>
          <polygon class="uuid-e42a22b7-3c4d-46d1-8a4c-c0730642b4ae" points="956.23 969.96 989.45 895.96 1055.9 897.35 1048.97 976.94 956.23 969.96"/>
          <polygon class="uuid-e42a22b7-3c4d-46d1-8a4c-c0730642b4ae" points="1098.33 975.79 1138.42 894.69 1202.84 898.74 1195.68 981.2 1098.33 975.79"/>
          <g class="uuid-76607303-bc07-40ce-a247-058995bb3942">
            <polygon class="uuid-8461e881-1211-4f5f-a149-013ff5450364" points="1055.9 897.35 1032.34 896.86 1016.19 974.48 1048.97 976.94 1055.9 897.35"/>
          </g>
          <g class="uuid-76607303-bc07-40ce-a247-058995bb3942">
            <polygon class="uuid-8461e881-1211-4f5f-a149-013ff5450364" points="1202.84 898.74 1177.67 897.16 1152.48 978.8 1195.68 981.2 1202.84 898.74"/>
          </g>
          <path class="uuid-87f99cc4-409d-46f2-81b6-69245bc3211b" d="m774.68,1077.1l31.67-116.54s420.56,13.93,420.56,13.93c22.79,40.51,75.61,56.13,119.45,51.67,6.71-.68,25.12-2.35,25.12-2.35,0,0,8.6,47.58,11.82,59.12-17.6,5.27-43.41.93-61.98.81-39.73-.26-79.46-.67-119.19-1.11-95.43-1.04-190.86-2.28-286.29-3.57-47.05-.63-94.1-1.28-141.15-1.96Z"/>
          <rect class="uuid-fb172299-9736-4637-958a-9fb88de3ee0e" x="949.49" y="1001.1" width="25.34" height="25.34"/>
          <rect class="uuid-fb172299-9736-4637-958a-9fb88de3ee0e" x="1006.49" y="998.56" width="41.8" height="29.14"/>
          <rect class="uuid-fb172299-9736-4637-958a-9fb88de3ee0e" x="1087.56" y="1002.36" width="21.54" height="27.87"/>
          <rect class="uuid-fb172299-9736-4637-958a-9fb88de3ee0e" x="1152.17" y="999.83" width="22.8" height="29.14"/>
          <polygon class="uuid-fb172299-9736-4637-958a-9fb88de3ee0e" points="922.23 1023.93 791.6 1025.19 796.57 996.53 914.07 997.84 922.23 1023.93"/>
          <g class="uuid-70ee4877-d497-442c-8183-59f8ecc00d1d">
            <path class="uuid-be78aa32-4f91-4c12-bf2e-40c6df6ed704" d="m1002.71,909.8c1.92,4.42,2.35,8.71,2.23,12.89-.15,4.18-.99,8.23-2.39,12.08-1.39,3.85-3.32,7.51-5.81,10.86-2.58,3.3-5.53,6.4-9.73,8.68-1.28.69-2.87.22-3.57-1.06-.16-.29-.25-.59-.29-.9v-.05c-.62-4.64-.23-8.59.28-12.43.6-3.8,1.52-7.4,2.72-10.89,1.19-3.5,2.69-6.88,4.62-10.21,1.96-3.33,4.21-6.62,7.68-9.83l.03-.02c1.08-1,2.76-.93,3.75.14.21.22.37.48.49.75Z"/>
          </g>
          <g class="uuid-70ee4877-d497-442c-8183-59f8ecc00d1d">
            <path class="uuid-be78aa32-4f91-4c12-bf2e-40c6df6ed704" d="m1150.92,916.24c.78,4.59.36,8.58-.43,12.37-.82,3.78-2.13,7.32-3.86,10.65-1.71,3.33-3.81,6.48-6.34,9.39-2.63,2.87-5.51,5.62-9.59,7.76-1.31.69-2.93.18-3.61-1.13-.14-.26-.23-.55-.27-.83-.71-4.55-.22-8.5.52-12.32.83-3.78,2.11-7.33,3.77-10.69,1.65-3.37,3.71-6.53,6.26-9.44,2.58-2.9,5.53-5.61,9.68-7.71,1.33-.68,2.96-.14,3.63,1.19.12.24.21.51.25.77Z"/>
          </g>
          <path class="uuid-07eb06a4-5dcc-4bc3-96ec-055836c5b067" d="m697.92,1341.18c1.27-3.8-19.63-116.61-39.78-158.94-12.67-26.6-29.14-60.8-82.34-106.41,236.93,1.58,473.86,3.17,710.79,4.75,75.65.51,235.74-.85,235.74-.85,10.44,80.01-33,190.32-101.12,236.29-63.58,42.91-147.23,25.16-219.91,25.16h-503.37Z"/>
          <path class="uuid-fb172299-9736-4637-958a-9fb88de3ee0e" d="m830.41,1078.37h159.61s-11.39,34.17-25.32,41.79c-10.75,5.88-21.25,4.53-32.75,4.93-16.63.58-32.3,3.73-49.05,1.15-13.98-2.14-28.43-7.62-38.92-17.37-2.5-2.32-18.12-30.51-13.57-30.51Z"/>
          <path class="uuid-fb172299-9736-4637-958a-9fb88de3ee0e" d="m1015.36,1079.63h159.61s-11.4,34.2-25.33,41.8c-20.47,11.17-60.64,5.3-83.21,5.33-12.21.02-24.33-2.97-33.25-11.66-6.89-6.71-22.58-25.01-17.82-35.47Z"/>
          <path class="uuid-fb172299-9736-4637-958a-9fb88de3ee0e" d="m1200.93,1080.79h159.61s-11.4,34.2-25.33,41.8c-20.94,11.43-60.1,4.83-83.12,5.17-13.1.2-24.28-2.78-33.57-12.09-6.68-6.69-22.4-24.29-17.58-34.88Z"/>
          <g>
            <path class="uuid-fcc2223e-df87-4a00-9b59-6675305d6e82" d="m739.23,1147.96c2.88,19.71,9.72,45.22,25.82,62.64,6.56,7.1,18.31,2.9,19.05-6.74,1.15-15.06-2.59-38.17-25.85-64.74-7.12-8.12-20.57-1.85-19.01,8.84Z"/>
            <path class="uuid-fcc2223e-df87-4a00-9b59-6675305d6e82" d="m905.67,1176.49c0,8.05-6.52,14.57-14.57,14.57s-14.57-6.52-14.57-14.57,6.52-14.57,14.57-14.57,14.57,6.52,14.57,14.57Z"/>
            <path class="uuid-fcc2223e-df87-4a00-9b59-6675305d6e82" d="m979.14,1176.49c0,8.05-6.52,14.57-14.57,14.57s-14.57-6.52-14.57-14.57,6.52-14.57,14.57-14.57,14.57,6.52,14.57,14.57Z"/>
            <path class="uuid-fcc2223e-df87-4a00-9b59-6675305d6e82" d="m1052.61,1176.49c0,8.05-6.52,14.57-14.57,14.57s-14.57-6.52-14.57-14.57,6.52-14.57,14.57-14.57,14.57,6.52,14.57,14.57Z"/>
            <path class="uuid-fcc2223e-df87-4a00-9b59-6675305d6e82" d="m1126.09,1176.49c0,8.05-6.52,14.57-14.57,14.57s-14.57-6.52-14.57-14.57,6.52-14.57,14.57-14.57,14.57,6.52,14.57,14.57Z"/>
            <path class="uuid-fcc2223e-df87-4a00-9b59-6675305d6e82" d="m1199.56,1176.49c0,8.05-6.52,14.57-14.57,14.57s-14.57-6.52-14.57-14.57,6.52-14.57,14.57-14.57,14.57,6.52,14.57,14.57Z"/>
            <path class="uuid-fcc2223e-df87-4a00-9b59-6675305d6e82" d="m1273.03,1176.49c0,8.05-6.52,14.57-14.57,14.57s-14.57-6.52-14.57-14.57,6.52-14.57,14.57-14.57,14.57,6.52,14.57,14.57Z"/>
            <path class="uuid-fcc2223e-df87-4a00-9b59-6675305d6e82" d="m1342.2,1176.49c0,8.05-6.52,14.57-14.57,14.57s-14.57-6.52-14.57-14.57,6.52-14.57,14.57-14.57,14.57,6.52,14.57,14.57Z"/>
          </g>
        </g>
        <path class="uuid-5c65fd41-c9da-4a5c-9cde-2edc35a1bfa3" d="m385.08,1502.17c-11.58,0-23.27-3.44-33.48-10.58-26.43-18.52-32.84-54.95-14.32-81.39,55.99-79.91,151.01-127.96,248.03-130.64,58.83-1.63,98.55,33,153.38,47.11,63.75,16.4,135.9,16.53,189.66-22.98,48.02-35.29,92.73-81.52,157.72-72.46,48.03,6.7,83.31,35.21,111.66,58.11,13.91,11.24,27.05,21.86,39.49,28.43,31.92,16.85,77.24,16.53,138.46-.93,15.1-4.3,30.1-9.16,45.12-14,46.82-15.1,95.21-30.71,148.92-32.93,79.79-3.41,176.45,32.3,210.75,119.41,11.83,30.02-2.92,63.95-32.94,75.78-30.04,11.81-63.96-2.92-75.78-32.96-12.47-31.64-59.5-47.05-97.2-45.47-37.81,1.57-76.7,14.11-117.88,27.39-15.85,5.11-32.23,10.4-48.92,15.15-91.63,26.14-165.24,23.49-225.09-8.1-22.48-11.88-41.55-27.28-58.38-40.88-20.61-16.66-38.41-31.04-54.34-33.26-22.2-3.13-46.51,15.19-84.06,45.66-40.73,33.06-86.91,70.54-149.47,74.44-53.4,3.34-96.76-19.24-135.09-39.14-12.98-6.74-25.23-13.11-36.91-17.96-78.73-32.69-182.54-2.51-231.43,67.28-11.37,16.22-29.49,24.91-47.91,24.91Z"/>
        <path class="uuid-5c65fd41-c9da-4a5c-9cde-2edc35a1bfa3" d="m872.34,1649c-55.74,0-100.73-27.66-137.4-50.2-14.62-8.98-28.42-17.47-41.45-23.53-59.67-27.81-139.83-11.58-182.49,36.98-21.73,24.78-60.43,28.04-86.44,7.34-25.99-20.7-29.46-57.55-7.71-82.31,78.5-89.43,220.61-118.21,330.57-66.99,19.56,9.1,37.1,19.9,54.08,30.33,28.78,17.69,53.47,32.98,73.95,31.4,19.51-1.51,41.05-19.24,66.01-39.75,31.99-26.31,68.23-56.12,118.81-66.24,72.65-14.53,134.27,19.14,183.74,46.23,31.25,17.11,60.76,33.26,87.32,35.88,29.14,2.92,63.25-10.12,99.3-23.89,14.25-5.45,28.99-11.07,44.26-16.08,97.18-31.82,188.64-12.78,233.05,48.51,19.24,26.56,12.24,62.95-15.66,81.28-27.9,18.35-66.12,11.66-85.36-14.91-11.35-15.66-51.81-17.58-92.11-4.37-12.37,4.05-25.06,8.9-38.5,14.03-46.05,17.59-98.25,37.5-157.64,31.67-52.48-5.18-96.76-29.42-135.81-50.8-37.79-20.68-70.38-38.55-97.34-33.18-19.59,3.92-41.08,21.6-63.84,40.32-34.24,28.15-76.84,63.19-136.27,67.8-4.42.34-8.78.51-13.06.51Z"/>
        <path class="uuid-5c65fd41-c9da-4a5c-9cde-2edc35a1bfa3" d="m879.75,1819.74c-36.26,0-74.31-7.66-111.63-22.81-50.68-20.57-94.2-51.77-132.59-79.3-27.07-19.41-32.49-56.05-12.1-81.83,20.37-25.77,58.83-30.94,85.93-11.53,35.98,25.8,69.96,50.16,106.89,65.15,34.94,14.18,68.66,17.33,94.89,8.93,17.88-5.74,36.79-18.12,56.82-31.23,31.69-20.75,67.62-44.27,114.31-51.94,63.6-10.47,121.42,12.83,164.58,34.3,7.96,3.96,15.9,8.08,23.82,12.19,27.91,14.49,54.26,28.18,79.75,33.1,22.19,4.3,45.84-.84,52.75-11.44,17.9-27.42,55.76-35.79,84.51-18.77,28.78,17.04,37.61,53.07,19.71,80.48-39.78,60.94-119.74,76.19-181.37,64.27-43.61-8.43-81.06-27.87-114.09-45.03-7.3-3.79-14.58-7.58-21.91-11.22-24-11.93-59.1-27.26-86.89-22.71-20.17,3.32-41.24,17.11-65.64,33.08-24.88,16.28-53.05,34.73-87.18,45.68-22.17,7.1-45.95,10.63-70.55,10.63Z"/>
        <g class="uuid-f636acef-7f1a-4143-8529-3d39bc350ea1">
          <path class="uuid-07eb06a4-5dcc-4bc3-96ec-055836c5b067" d="m380.1,1447.43c12.14-26.84,31.79-50.28,55.01-69.07,5.88-4.59,11.94-9.02,18.1-13.3l19.25-11.65,20.36-9.62c7.01-2.67,13.98-5.5,21.07-7.99,28.64-9.03,58.83-13.55,88.74-11.81,29.81,1.53,59.45,8.79,85.14,23.12,2.4,1.34,3.26,4.37,1.92,6.76-.99,1.77-2.94,2.69-4.83,2.53-28.11-2.54-55.06-2.84-81.59-.16-26.45,2.87-52.4,8.08-77.33,16.51-6.14,2.36-12.4,4.38-18.61,6.56l-18.15,7.77-17.88,8.53c-5.69,3.33-11.46,6.56-17.42,9.59-22.96,13.5-44.57,29.53-65.95,48.03-2.06,1.82-5.21,1.62-7.03-.45-1.32-1.5-1.56-3.62-.8-5.34Z"/>
        </g>
        <g class="uuid-f636acef-7f1a-4143-8529-3d39bc350ea1">
          <path class="uuid-07eb06a4-5dcc-4bc3-96ec-055836c5b067" d="m875.54,1380.59c25.07-4.92,44.93-18.03,64.18-33.25,18.94-15.37,36.91-34.07,59.26-50.89,11.16-8.35,23.4-16.23,37.06-22.21,13.37-5.99,29.44-10.06,44.72-9.76,15.35-.05,30.72,3.47,44.34,10.82,13.48,7.42,24.9,19.64,29.13,33.87.78,2.64-.72,5.41-3.36,6.19-1.85.55-3.77-.03-5.02-1.33l-.15-.16c-17.08-17.88-41.03-20.54-62.7-17.22-21.41,3.58-40.82,15.91-60.57,30.83-19.69,14.82-39.58,33.13-64.48,47.05-12.26,7.01-25.66,12.68-39.83,16.09-14.22,3.06-29.34,3.77-43.14-.3-2.65-.79-4.16-3.56-3.38-6.21.55-1.84,2.06-3.14,3.83-3.49l.11-.02Z"/>
        </g>
        <g class="uuid-f636acef-7f1a-4143-8529-3d39bc350ea1">
          <path class="uuid-07eb06a4-5dcc-4bc3-96ec-055836c5b067" d="m1320.72,1369.24c18.72-5.26,36.84-8.45,54.84-11.36,17.98-3.11,35.8-5.54,53.66-7.91,17.87-2.33,35.71-4.7,53.88-6.49,18.15-1.97,36.44-3.84,55.82-3.97,2.82-.03,5.14,2.23,5.17,5.05.02,1.7-.84,3.25-2.11,4.2-15.94,11.56-33.51,19.74-51.62,26.14-18.09,6.59-36.88,10.93-55.89,13.63-19.01,2.66-38.29,3.55-57.48,2.07-19.17-1.28-38.3-4.55-56.75-11.63-2.64-1.01-3.96-3.98-2.95-6.63.6-1.56,1.93-2.68,3.42-3.11Z"/>
        </g>
        <g class="uuid-f636acef-7f1a-4143-8529-3d39bc350ea1">
          <path class="uuid-07eb06a4-5dcc-4bc3-96ec-055836c5b067" d="m495.64,1558.73c12.93-18.08,31.69-32.11,52.45-41.91,20.74-10.05,43.81-15.74,67.09-17.29,23.27-1.52,46.93.96,68.96,8.05,22,6.87,42.69,18.03,58.36,33.95,2.01,2.04,1.9,5.25-.25,7.16-1.36,1.21-3.21,1.62-4.9,1.22l-.11-.03c-21.04-5.04-40.74-8.83-60.48-10.83-19.73-1.79-39.21-2.17-58.6-.72-19.39,1.43-38.56,4.55-57.77,9.07-19.18,4.76-38.09,11.13-58.27,18.87l-.08.03c-2.73,1.05-5.84-.22-6.94-2.81-.68-1.62-.41-3.4.54-4.76Z"/>
        </g>
        <g class="uuid-f636acef-7f1a-4143-8529-3d39bc350ea1">
          <path class="uuid-07eb06a4-5dcc-4bc3-96ec-055836c5b067" d="m877.78,1551.18c20.63-3.25,36.42-11.84,52.36-22.27,15.71-10.71,31.03-23.22,47.88-35.7,17.71-12.98,37.69-24.77,60.99-30.99,11.53-3.24,24.04-4.7,36.47-3.67,12.38,1.26,24.7,5.21,33.9,12.55,2.26,1.79,2.56,5,.67,7.15-1.16,1.33-2.89,1.94-4.57,1.8l-.18-.02c-20.62-1.89-37.4,3.96-54.03,12.25-16.43,8.64-32.26,19.68-48.08,31.57-16.66,12.47-34.93,25.26-56.75,33.89-21.14,8.84-48.35,12.97-70.26,3.06-2.66-1.2-3.79-4.23-2.53-6.76.77-1.55,2.26-2.55,3.91-2.83l.21-.03Z"/>
        </g>
        <g class="uuid-f636acef-7f1a-4143-8529-3d39bc350ea1">
          <path class="uuid-07eb06a4-5dcc-4bc3-96ec-055836c5b067" d="m1311.37,1565.9c23.48-1.8,43.65-8.03,63.88-16.23,20.08-8.45,40.07-18.64,61.28-28.51,21.18-9.8,43.67-19.6,68.46-25.18,24.4-5.79,52.14-7.17,76,2.18,2.7,1.06,3.98,3.99,2.87,6.56-.74,1.72-2.37,2.83-4.17,3.07l-.11.02c-23.3,2.98-43.48,9.94-63.69,18.71-20.08,8.98-40.04,19.44-61.3,29.55-21.23,10-43.93,19.73-69.06,24.86-24.7,5.4-53,5.53-76.19-5.48-2.62-1.24-3.68-4.27-2.38-6.76.86-1.64,2.52-2.64,4.3-2.78h.1Z"/>
        </g>
        <g class="uuid-f636acef-7f1a-4143-8529-3d39bc350ea1">
          <path class="uuid-07eb06a4-5dcc-4bc3-96ec-055836c5b067" d="m680.61,1687.56c11.82,6.08,21.57,11.24,31.37,15.81,9.73,4.55,19.2,8.54,28.86,12.2,9.68,3.61,19.54,6.79,29.99,9.6,10.51,3,21.42,5.2,34.42,8.06l.24.06c3.05.67,4.96,3.58,4.25,6.49-.28,1.15-.93,2.13-1.8,2.85-10.96,9.1-25.1,13.47-39.35,14.92-14.32,1.26-28.95-.79-42.43-5.67-13.5-4.83-25.88-12.6-35.62-22.71-9.67-10.08-16.98-22.53-18.55-36.36-.34-2.99,1.93-5.67,5.07-5.99,1.2-.12,2.35.12,3.33.63l.22.11Z"/>
        </g>
        <g class="uuid-f636acef-7f1a-4143-8529-3d39bc350ea1">
          <path class="uuid-07eb06a4-5dcc-4bc3-96ec-055836c5b067" d="m941.64,1731.44l58.74-42.96c19.76-14.3,40.94-28.2,65.01-39.08,24.47-10.94,51.49-17.85,79.35-17.32,27.45.15,56.98,9.07,75.29,28.58,1.94,2.07,1.75,5.24-.42,7.08-1.48,1.26-3.5,1.57-5.25,1l-.11-.04c-23.03-7.7-45.3-7.88-67.3-4.44-21.93,3.76-43.48,10.87-63.97,20.24-20.96,9.58-41.91,21.26-64.56,31.85-22.43,10.69-46.8,20.73-72.95,24.11-2.89.37-5.54-1.55-5.94-4.3-.26-1.85.56-3.6,2.01-4.66l.1-.07Z"/>
        </g>
        <g class="uuid-f636acef-7f1a-4143-8529-3d39bc350ea1">
          <path class="uuid-07eb06a4-5dcc-4bc3-96ec-055836c5b067" d="m1291.27,1732.48c14.23-2.51,26.97-3.37,39.5-4.24,12.48-.81,24.59-1.39,36.74-1.85l36.8-1.32c12.6-.16,25.35-.67,39.69.37h.11c3.1.23,5.43,2.81,5.2,5.77-.1,1.28-.67,2.42-1.52,3.28-10.29,10.37-23.01,17.18-36.33,22.31-13.4,4.93-27.64,7.73-41.97,8.45-14.33.77-28.81-.63-42.66-4.33-13.81-3.75-27.16-9.55-38.39-19.08-2.34-1.98-2.54-5.4-.46-7.62.87-.93,2-1.51,3.2-1.72l.11-.02Z"/>
        </g>
      </g>
    </g>
  </g>
</svg>