<svg width="236" height="198" viewBox="0 0 236 198" fill="none" xmlns="http://www.w3.org/2000/svg">
<path d="M212.39 133.08C212.39 163.098 184.072 190.83 149.14 190.83C143.738 190.83 169 190.289 163.994 189.126C152.494 174.688 171.5 159.462 171.5 132.5C171.5 100.606 166.264 100.535 172.014 86.0978C182.821 86.0978 170.12 77.9843 179.018 82.539C198.883 92.7074 212.39 112.349 212.39 133.08Z" fill="#FACC15"/>
<path d="M212.39 133.08C212.39 163.098 184.072 190.83 149.14 190.83C164.521 190.83 184.837 189.173 200.764 182.93C210.492 170.347 212.39 150.294 212.39 133.08Z" fill="#FACC15"/>
<path d="M149.14 190.83C143.738 190.83 169 190.289 163.994 189.126C174.858 193.998 155.781 197.367 166.264 197.367C181.164 197.367 183.514 197.367 200.764 182.93C184.837 189.173 164.521 190.83 149.14 190.83Z" fill="#FACC15"/>
<path d="M166.264 197.367C206.514 197.367 235.264 174.447 235.264 144.43C235.264 161.23 221.011 174.992 200.764 182.93C183.514 197.367 181.164 197.367 166.264 197.367Z" fill="#FACC15"/>
<path d="M179.018 82.539C198.883 92.7074 212.39 112.349 212.39 133.08C212.39 150.294 210.492 170.347 200.764 182.93C221.011 174.992 235.264 161.23 235.264 144.43C235.264 122.35 207.568 95.1 179.018 82.539Z" fill="#FACC15"/>
<path d="M216.305 149.048C215.303 156.221 205.143 170.14 199.236 169.314C193.329 168.489 193.884 157.759 194.886 150.585C195.888 143.412 201.103 130.196 207.01 131.022C212.917 131.847 217.307 141.874 216.305 149.048Z" fill="black"/>
<rect x="0.612632" y="0.400105" width="56.1456" height="20.8742" transform="matrix(0.985343 -0.170582 0.23992 0.970793 108.677 149.481)" fill="#FACC15" stroke="black"/>
<mask id="path-4-inside-1_4_70" fill="white">
<path d="M97.75 67.375C116.035 140.621 74.75 192.5 74.75 192.5H109.25C130.87 136.675 120.75 97.1162 115 77M139.84 49.665C141.795 51.6862 143.75 53.8038 145.245 56.0175C164.91 82.1013 161 115.019 138 137.253C147.66 117.521 146.28 94.2288 131.675 74.7863C130.755 73.535 129.72 72.4763 128.8 71.3213C122.015 63.3325 113.39 56.98 103.96 52.2637C70.84 61.1187 46.92 87.01 46.92 117.618C46.92 124.74 48.185 131.574 50.485 137.926C40.825 126.665 35.19 112.901 35.19 98.0787C35.19 75.46 48.3 55.44 68.425 42.9275C51.75 41.8688 34.04 44.9488 18.63 52.9375C11.5 56.8837 5.29 61.4075 0 66.5088C6.325 53.7075 17.25 42.2538 32.2 34.3613C49.45 25.3138 69 22.33 87.86 24.64C83.145 19.25 77.395 14.1487 70.495 9.625C63.825 5.5825 56.58 2.31 48.99 0C65.55 0.385 82.11 4.8125 96.255 13.7638C103.5 18.2875 109.25 23.7738 113.85 29.5488C115 29.5488 116.035 29.4525 117.185 29.4525C153.985 29.4525 185.15 49.7612 195.5 77.77C182.62 62.5625 162.725 52.2637 139.84 49.665Z"/>
</mask>
<path d="M97.75 67.375C116.035 140.621 74.75 192.5 74.75 192.5H109.25C130.87 136.675 120.75 97.1162 115 77M139.84 49.665C141.795 51.6862 143.75 53.8038 145.245 56.0175C164.91 82.1013 161 115.019 138 137.253C147.66 117.521 146.28 94.2288 131.675 74.7863C130.755 73.535 129.72 72.4763 128.8 71.3213C122.015 63.3325 113.39 56.98 103.96 52.2637C70.84 61.1187 46.92 87.01 46.92 117.618C46.92 124.74 48.185 131.574 50.485 137.926C40.825 126.665 35.19 112.901 35.19 98.0787C35.19 75.46 48.3 55.44 68.425 42.9275C51.75 41.8688 34.04 44.9488 18.63 52.9375C11.5 56.8837 5.29 61.4075 0 66.5088C6.325 53.7075 17.25 42.2538 32.2 34.3613C49.45 25.3138 69 22.33 87.86 24.64C83.145 19.25 77.395 14.1487 70.495 9.625C63.825 5.5825 56.58 2.31 48.99 0C65.55 0.385 82.11 4.8125 96.255 13.7638C103.5 18.2875 109.25 23.7738 113.85 29.5488C115 29.5488 116.035 29.4525 117.185 29.4525C153.985 29.4525 185.15 49.7612 195.5 77.77C182.62 62.5625 162.725 52.2637 139.84 49.665Z" fill="#FACC15"/>
<path d="M74.75 192.5L73.9675 191.877L72.6762 193.5H74.75V192.5ZM109.25 192.5V193.5H109.935L110.183 192.861L109.25 192.5ZM139.84 49.665L139.953 48.6714L137.184 48.3569L139.121 50.3602L139.84 49.665ZM145.245 56.0175L144.416 56.5772L144.431 56.5987L144.446 56.6195L145.245 56.0175ZM138 137.253L137.102 136.813L138.695 137.971L138 137.253ZM131.675 74.7863L130.869 75.3787L130.875 75.3869L131.675 74.7863ZM128.8 71.3213L129.582 70.6982L129.572 70.6859L129.562 70.6739L128.8 71.3213ZM103.96 52.2637L104.407 51.3694L104.068 51.1997L103.702 51.2977L103.96 52.2637ZM50.485 137.926L49.726 138.577L51.4253 137.586L50.485 137.926ZM68.425 42.9275L68.953 43.7767L71.6057 42.1274L68.4884 41.9295L68.425 42.9275ZM18.63 52.9375L18.1698 52.0497L18.1577 52.056L18.1458 52.0626L18.63 52.9375ZM0 66.5088L-0.896536 66.0658L0.694148 67.2286L0 66.5088ZM32.2 34.3613L31.7355 33.4757L31.7331 33.4769L32.2 34.3613ZM87.86 24.64L87.7384 25.6326L90.3351 25.9506L88.6127 23.9816L87.86 24.64ZM70.495 9.625L71.0433 8.78871L71.0285 8.77899L71.0133 8.76981L70.495 9.625ZM48.99 0L49.0132 -0.99973L48.6988 0.956674L48.99 0ZM96.255 13.7638L95.7202 14.6088L95.7254 14.612L96.255 13.7638ZM113.85 29.5488L113.068 30.1718L113.368 30.5488H113.85V29.5488ZM195.5 77.77L194.737 78.4163L196.438 77.4234L195.5 77.77ZM96.7798 67.6172C105.863 104.004 100.151 135.079 92.1669 157.063C88.1743 168.057 83.6146 176.773 80.0563 182.737C78.2774 185.719 76.7495 188.011 75.669 189.554C75.1288 190.326 74.7005 190.91 74.4087 191.3C74.2628 191.495 74.1511 191.641 74.0765 191.738C74.0392 191.786 74.0113 191.822 73.993 191.845C73.9838 191.857 73.9771 191.865 73.9728 191.871C73.9707 191.873 73.9692 191.875 73.9683 191.876C73.9679 191.877 73.9677 191.877 73.9675 191.877C73.9674 191.877 73.9675 191.877 74.75 192.5C75.5325 193.123 75.5329 193.122 75.5335 193.121C75.5339 193.121 75.5346 193.12 75.5355 193.119C75.5371 193.117 75.5393 193.114 75.5422 193.11C75.5479 193.103 75.5561 193.093 75.5667 193.079C75.588 193.052 75.619 193.012 75.6592 192.96C75.7398 192.856 75.8576 192.702 76.0096 192.499C76.3137 192.093 76.7545 191.491 77.3075 190.701C78.4133 189.122 79.968 186.789 81.7738 183.762C85.3851 177.709 90.0038 168.878 94.0468 157.746C102.134 135.48 107.922 103.992 98.7202 67.1328L96.7798 67.6172ZM74.75 193.5H109.25V191.5H74.75V193.5ZM110.183 192.861C131.914 136.747 121.74 96.9404 115.961 76.7252L114.039 77.2748C119.76 97.2921 129.826 136.603 108.317 192.139L110.183 192.861ZM139.121 50.3602C141.073 52.3787 142.974 54.4421 144.416 56.5772L146.074 55.4578C144.526 53.1654 142.516 50.9938 140.559 48.9698L139.121 50.3602ZM144.446 56.6195C163.787 82.2729 159.967 114.627 137.305 136.534L138.695 137.971C162.033 115.411 166.033 81.9296 146.043 55.4155L144.446 56.6195ZM138.898 137.692C148.72 117.63 147.31 93.9349 132.475 74.1856L130.875 75.3869C145.25 94.5226 146.6 117.412 137.102 136.813L138.898 137.692ZM132.481 74.1939C131.996 73.5347 131.486 72.9323 130.994 72.3637C130.496 71.7869 130.026 71.2554 129.582 70.6982L128.018 71.9443C128.494 72.5421 129.002 73.1174 129.481 73.6716C129.967 74.2339 130.434 74.7866 130.869 75.3786L132.481 74.1939ZM129.562 70.6739C122.677 62.5667 113.938 56.1359 104.407 51.3694L103.513 53.1581C112.842 57.8241 121.353 64.0983 128.038 71.9686L129.562 70.6739ZM103.702 51.2977C70.2647 60.2374 45.92 86.4435 45.92 117.618H47.92C47.92 87.5765 71.4152 62.0001 104.218 53.2298L103.702 51.2977ZM45.92 117.618C45.92 124.859 47.2063 131.808 49.5447 138.267L51.4253 137.586C49.1637 131.339 47.92 124.621 47.92 117.618H45.92ZM51.244 137.275C41.7227 126.176 36.19 112.638 36.19 98.0787H34.19C34.19 113.165 39.9273 127.154 49.726 138.577L51.244 137.275ZM36.19 98.0787C36.19 75.8718 49.0606 56.1446 68.953 43.7767L67.897 42.0783C47.5394 54.7354 34.19 75.0482 34.19 98.0787H36.19ZM68.4884 41.9295C51.6546 40.8607 33.76 43.9675 18.1698 52.0497L19.0902 53.8253C34.32 45.93 51.8454 42.8768 68.3616 43.9255L68.4884 41.9295ZM18.1458 52.0626C10.9475 56.0466 4.66515 60.6208 -0.694148 65.7889L0.694148 67.2286C5.91485 62.1942 12.0525 57.7209 19.1142 53.8124L18.1458 52.0626ZM0.896536 66.9517C7.12346 54.349 17.893 43.0451 32.6669 35.2456L31.7331 33.4769C16.607 41.4624 5.52654 53.066 -0.896536 66.0658L0.896536 66.9517ZM32.6645 35.2468C49.7185 26.3021 69.0614 23.345 87.7384 25.6326L87.9816 23.6474C68.9386 21.315 49.1815 24.3254 31.7355 33.4757L32.6645 35.2468ZM88.6127 23.9816C83.8379 18.5232 78.0191 13.3622 71.0433 8.78871L69.9467 10.4613C76.7709 14.9353 82.4521 19.9768 87.1073 25.2984L88.6127 23.9816ZM71.0133 8.76981C64.2739 4.68524 56.9528 1.37816 49.2812 -0.956674L48.6988 0.956674C56.2072 3.24184 63.3761 6.47976 69.9767 10.4802L71.0133 8.76981ZM48.9668 0.99973C65.3683 1.38104 81.7468 5.76608 95.7203 14.6088L96.7897 12.9187C82.4732 3.85893 65.7318 -0.611045 49.0132 -0.99973L48.9668 0.99973ZM95.7254 14.612C102.862 19.0681 108.529 24.4739 113.068 30.1718L114.632 28.9257C109.971 23.0736 104.138 17.5069 96.7846 12.9155L95.7254 14.612ZM113.85 30.5488C114.45 30.5488 115.018 30.5236 115.562 30.4997C116.111 30.4755 116.635 30.4525 117.185 30.4525V28.4525C116.585 28.4525 116.017 28.4777 115.473 28.5016C114.924 28.5258 114.4 28.5488 113.85 28.5488V30.5488ZM117.185 30.4525C153.648 30.4525 184.383 50.5718 194.562 78.1166L196.438 77.4234C185.917 48.9507 154.322 28.4525 117.185 28.4525V30.4525ZM196.263 77.1237C183.2 61.7002 163.061 51.2955 139.953 48.6714L139.727 50.6586C162.389 53.232 182.04 63.4248 194.737 78.4163L196.263 77.1237Z" fill="black" mask="url(#path-4-inside-1_4_70)"/>
<mask id="path-6-inside-2_4_70" fill="white">
<path d="M162.144 73C180.543 145.588 139 197 139 197L157 198H166.5L173 197.5C194.755 142.177 185.287 102.474 179.501 82.5385"/>
</mask>
<path d="M162.144 73C180.543 145.588 139 197 139 197L157 198H166.5L173 197.5C194.755 142.177 185.287 102.474 179.501 82.5385" fill="#FACC15"/>
<path d="M139 197L138.222 196.372L136.995 197.89L138.945 197.998L139 197ZM173 197.5L173.077 198.497L173.701 198.449L173.931 197.866L173 197.5ZM157 198L156.945 198.998L156.972 199H157V198ZM166.5 198V199H166.538L166.577 198.997L166.5 198ZM161.174 73.2457C170.313 109.3 164.567 140.09 156.533 161.874C152.516 172.768 147.928 181.405 144.348 187.314C142.558 190.269 141.021 192.54 139.934 194.07C139.39 194.834 138.96 195.414 138.666 195.8C138.519 195.993 138.407 196.137 138.332 196.233C138.294 196.281 138.266 196.316 138.248 196.34C138.239 196.351 138.232 196.36 138.228 196.365C138.225 196.368 138.224 196.369 138.223 196.371C138.223 196.371 138.222 196.371 138.222 196.372C138.222 196.372 138.222 196.372 139 197C139.778 197.628 139.778 197.628 139.779 197.627C139.779 197.627 139.78 197.626 139.781 197.625C139.782 197.623 139.785 197.62 139.788 197.616C139.793 197.609 139.802 197.599 139.812 197.585C139.834 197.559 139.865 197.519 139.905 197.467C139.987 197.364 140.105 197.211 140.258 197.01C140.564 196.608 141.008 196.011 141.564 195.228C142.677 193.663 144.242 191.351 146.059 188.351C149.693 182.352 154.341 173.6 158.41 162.566C166.548 140.498 172.373 109.288 163.113 72.7543L161.174 73.2457ZM173.931 197.866C195.797 142.26 186.281 102.311 180.462 82.2597L178.541 82.8172C184.293 102.637 193.713 142.094 172.069 197.134L173.931 197.866ZM138.945 197.998L156.945 198.998L157.055 197.002L139.055 196.002L138.945 197.998ZM157 199H166.5V197H157V199ZM166.577 198.997L173.077 198.497L172.923 196.503L166.423 197.003L166.577 198.997Z" fill="black" mask="url(#path-6-inside-2_4_70)"/>
<path d="M117.187 147.095L119.503 148.483L122.093 148.057L118.011 168.896L115 169.5L113.104 167.935L117.187 147.095Z" fill="#FACC15"/>
<path d="M162.541 140.987L165.266 140.463L166.53 142.008L161.136 163.077L159.651 161.91L157.147 162.056L162.541 140.987Z" fill="#FACC15"/>
</svg>
